<svg xmlns="http://www.w3.org/2000/svg" width="32" height="32" viewBox="0 0 32 32"><path d="M 27.5625,1 C 25.842198,0.89811714 24.249961,1.9266018 23.625,3.5625 L 23.15625,2.78125 c -0.103935,-0.1950636 -0.348063,-0.3035652 -0.5625,-0.25 -0.307967,0.071367 -0.478678,0.4810729 -0.3125,0.75 l 1,1.71875 c 0.129403,0.2305649 0.458958,0.3204436 0.6875,0.1875 l 1.75,-1 C 25.947824,4.0566003 26.037149,3.7290746 25.90625,3.5000001 25.77535,3.2709257 25.447824,3.1816003 25.21875,3.3125 L 24.6875,3.625 c 0.629691,-1.2237617 2.015604,-1.9039208 3.40625,-1.53125 0.768764,0.206 1.41457,0.71705 1.8125,1.40625 0.1309,0.2290745 0.458425,0.3183995 0.6875,0.1874998 C 30.822824,3.5566001 30.91215,3.2290745 30.78125,3 30.25092,2.0815 29.368274,1.3995 28.34375,1.125 28.077732,1.0537125 27.827441,1.0156908 27.5625,1 z m 2.6875,4.0625 -1.75,1 C 28.222026,6.1602159 28.085434,6.5356935 28.235646,6.7891772 28.385859,7.0426608 28.780804,7.1031532 29,6.90625 L 29.59375,6.5625 C 28.990489,7.85122 27.553452,8.5389632 26.125,8.15625 25.356236,7.95025 24.71043,7.4393 24.3125,6.75 24.1816,6.5209255 23.854075,6.4316005 23.625,6.5625002 23.395926,6.6933999 23.3066,7.0209255 23.4375,7.25 c 0.53033,0.9186 1.412976,1.63175 2.4375,1.90625 1.995132,0.5346562 4.030575,-0.5777789 4.75,-2.46875 l 0.4375,0.78125 C 31.1934,7.6978245 31.520925,7.7871495 31.75,7.6562498 31.979074,7.5253501 32.0684,7.1978245 31.9375,6.96875 l -1,-1.71875 C 30.762894,4.9475738 30.389463,4.9230366 30.25,5.0625 z M 3,11 l 23,0 0,5 -2.5,0 C 23.44834,15.9918 23.395405,15.9918 23.34375,16 23.137227,16.067661 22.989221,16.282943 23,16.5 L 23,25 3,25 z m 21,6 7,0 0,1 -7,0 z m 0,2 7,0 0,8 -7,0 0,-1 0,-1 z M 1.25,26 2.375,26 23,26 23,27 2.75,27 C 1.9928284,27 1.5010025,26.5422 1.25,26 z m 22.75,2 7,0 0,1 -7,0 z" color="#000" font-family="Sans" font-weight="400" overflow="visible" style="text-indent:0;text-align:start;line-height:normal;text-transform:none;block-progression:tb;marker:none;-inkscape-font-specification:Sans"/></svg>