<svg xmlns="http://www.w3.org/2000/svg" width="21" height="20" viewBox="0 0 21 20"><path fill="#000" fill-rule="evenodd" d="M332.45 286.967h2.1c.58 0 1.05.45 1.05 1.003 0 .553-.47 1.002-1.05 1.002h-2.1v2.005c0 .554-.47 1.003-1.05 1.003-.58 0-1.05-.45-1.05-1.003v-2.005h-2.1c-.58 0-1.05-.449-1.05-1.002 0-.554.47-1.003 1.05-1.003h2.1v-2.005c0-.553.47-1.002 1.05-1.002.58 0 1.05.449 1.05 1.002v2.005zm11.242 12.739a1.084 1.084 0 0 1-1.484 0l-4.148-3.96 1.485-1.417 4.147 3.96a.97.97 0 0 1 0 1.417zm-12.292-5.671c-3.473 0-6.3-2.698-6.3-6.015 0-3.316 2.827-6.015 6.3-6.015s6.3 2.699 6.3 6.015c0 3.317-2.827 6.015-6.3 6.015zm0-14.035c-4.639 0-8.4 3.59-8.4 8.02s3.761 8.02 8.4 8.02 8.4-3.59 8.4-8.02-3.761-8.02-8.4-8.02z" transform="translate(-323 -280)"/></svg>